
<svg xmlns="http://www.w3.org/2000/svg" width="100" height="100" viewBox="0 0 100 100" fill="none">
  <rect width="100" height="100" rx="8" fill="#F0F0F0"/>
  <path d="M20 50C20 48.8954 20.8954 48 22 48C23.1046 48 24 48.8954 24 50V60C24 61.1046 23.1046 62 22 62C20.8954 62 20 61.1046 20 60V50Z" fill="#3B82F6"/>
  <path d="M28 40C28 38.8954 28.8954 38 30 38C31.1046 38 32 38.8954 32 40V60C32 61.1046 31.1046 62 30 62C28.8954 62 28 61.1046 28 60V40Z" fill="#3B82F6"/>
  <path d="M36 35C36 33.8954 36.8954 33 38 33C39.1046 33 40 33.8954 40 35V65C40 66.1046 39.1046 67 38 67C36.8954 67 36 66.1046 36 65V35Z" fill="#3B82F6"/>
  <path d="M44 30C44 28.8954 44.8954 28 46 28C47.1046 28 48 28.8954 48 30V70C48 71.1046 47.1046 72 46 72C44.8954 72 44 71.1046 44 70V30Z" fill="#3B82F6"/>
  <path d="M52 35C52 33.8954 52.8954 33 54 33C55.1046 33 56 33.8954 56 35V65C56 66.1046 55.1046 67 54 67C52.8954 67 52 66.1046 52 65V35Z" fill="#3B82F6"/>
  <path d="M60 40C60 38.8954 60.8954 38 62 38C63.1046 38 64 38.8954 64 40V60C64 61.1046 63.1046 62 62 62C60.8954 62 60 61.1046 60 60V40Z" fill="#3B82F6"/>
  <path d="M68 45C68 43.8954 68.8954 43 70 43C71.1046 43 72 43.8954 72 45V55C72 56.1046 71.1046 57 70 57C68.8954 57 68 56.1046 68 55V45Z" fill="#3B82F6"/>
  <path d="M76 50C76 48.8954 76.8954 48 78 48C79.1046 48 80 48.8954 80 50V58C80 59.1046 79.1046 60 78 60C76.8954 60 76 59.1046 76 58V50Z" fill="#3B82F6"/>
</svg>
